<svg version="1.2" baseProfile="tiny-ps" xmlns="http://www.w3.org/2000/svg" viewBox="0 0 309 78" width="309" height="78">
	<title>Layer</title>
	<style>
		tspan { white-space:pre }
		.shp0 { fill: #000000 } 
	</style>
	<g id="Layer">
		<path id="Layer" class="shp0" d="M7 2.2C7 4.2 9.1 5.5 20.7 11C28.1 14.6 34.8 17.7 35.4 17.9C36.5 18.2 12.3 2.8 8.9 0.9C7.3 0.1 7 0.3 7 2.2ZM62 9C54.1 13.9 47.8 18 48.2 18C48.5 18 54.8 15.1 62.1 11.5C69.5 7.9 75.9 4.9 76.3 4.7C76.8 4.6 77 3.4 76.8 2.2C76.5 0.1 75.5 0.6 62 9ZM0 31.3L0.1 59.5L16.1 67C24.9 71.1 33.9 75.3 36.1 76.2L40 77.9L39.8 49.8L39.5 21.8L19.8 12.5L0 3.2L0 31.3ZM64 12.5L44.5 21.7L44.2 49.8L44 77.9L47.9 76.2C50.1 75.3 59.1 71.1 67.9 67L83.9 59.5L84 31.2C84 15.7 83.9 3 83.8 3.1C83.6 3.1 74.7 7.4 64 12.5Z" />
		<path id="Layer" fill-rule="evenodd" class="shp0" d="M271.8 15.9C275.6 17.9 277.3 23.4 277.3 33.5C277.4 48.9 273.9 53 261 53C248.2 53 244.9 48.9 244.9 33.4C244.9 19.2 247.4 15.2 257 14C262.4 13.4 268.6 14.1 271.8 15.9ZM254.4 24.2C253.5 27.2 253.5 39.8 254.4 42.8C255.8 47.1 264.8 48.1 266.9 44.2C269.8 38.7 269.2 25.2 265.9 21.9C262.7 18.7 255.8 20.1 254.4 24.2Z" />
		<path id="Layer" fill-rule="evenodd" class="shp0" d="M112 13.8L124.1 14.2C135.4 14.5 136.3 14.7 138.1 16.9C140.6 20 140.7 28.1 138.3 30.2C137.3 31.1 135.9 31.9 135.1 32.2C134.2 32.4 134.9 33.1 136.8 33.9C142.2 36.2 143.4 46.5 138.8 50.7C137.1 52.2 134.6 52.6 124.4 52.8L112 53.2L112 13.8ZM125.3 20L121 20L121 30L125.3 30C127.7 30 130.1 29.5 130.8 28.8C132.3 27.3 132.3 22.7 130.8 21.2C130.1 20.5 127.7 20 125.3 20ZM125.6 35.4L121 34.7L121 47L125.8 47C128.4 47 131.1 46.5 131.8 45.8C133.4 44.2 133.3 38.5 131.6 37.1C130.9 36.5 128.2 35.7 125.6 35.4Z" />
		<path id="Layer" class="shp0" d="M148 33.5L148 53L152 53L156 53L156 33.5L156 14L152 14L148 14L148 33.5Z" />
		<path id="Layer" fill-rule="evenodd" class="shp0" d="M164 13.8L176.1 14.2C187.4 14.5 188.3 14.7 190.1 16.9C193.9 21.5 191.9 32 187.2 32C186.4 32 187.2 33 189.1 34.3C192.3 36.4 192.5 37 192.8 42.6C193.2 51.7 192 52.4 176.4 52.8L164 53.2L164 13.8ZM176.8 20L172 20L172 30L176.8 30C182.2 30 184 28.8 184 25C184 23.6 183.5 21.9 182.8 21.2C182.1 20.5 179.4 20 176.8 20ZM172.8 35.6C172.3 36 172 38.7 172 41.7L172 47L177.3 47C180.2 47 183.1 46.5 183.8 45.8C185.4 44.2 185.3 38.5 183.6 37.1C182 35.7 173.8 34.5 172.8 35.6Z" />
		<path id="Layer" class="shp0" d="M200 31.4L200 48.9L202.6 50.9C204.8 52.6 206.7 53 212.9 53C223.4 53 225 52.4 225 48.9L225 46.1L216.8 45.8L208.5 45.5L208.2 29.7L207.9 14L204 14L200 14L200 31.4Z" />
		<path id="Layer" class="shp0" d="M230 33.5L230 53L234 53L238 53L238 33.5L238 14L234 14L230 14L230 33.5Z" />
		<path id="Layer" class="shp0" d="M293 28.5L293 33L288.5 33C284.2 33 284 33.1 284 36C284 38.9 284.2 39 288.5 39L293 39L293 43.5C293 47.8 293.1 48 296 48C298.9 48 299 47.8 299 43.5L299 39L304 39C308.9 39 309 38.9 309 36C309 33.1 308.9 33 304 33L299 33L299 28.5C299 24.2 298.9 24 296 24C293.1 24 293 24.2 293 28.5Z" />
	</g>
</svg>