<?xml version="1.0" standalone="no"?>
<!DOCTYPE svg PUBLIC "-//W3C//DTD SVG 20010904//EN"
 "http://www.w3.org/TR/2001/REC-SVG-20010904/DTD/svg10.dtd">
<svg version="1.0" xmlns="http://www.w3.org/2000/svg"
 width="200.000000pt" height="200.000000pt" viewBox="0 0 200.000000 200.000000"
 preserveAspectRatio="xMidYMid meet">

<g transform="translate(0.000000,200.000000) scale(0.100000,-0.100000)"
fill="#000000" stroke="none">
<path d="M650 1758 c0 -20 21 -33 137 -88 74 -36 141 -67 147 -69 11 -3 -231
151 -265 170 -16 8 -19 6 -19 -13z"/>
<path d="M1200 1690 c-79 -49 -142 -90 -138 -90 3 0 66 29 139 65 74 36 138
66 142 68 5 1 7 13 5 25 -3 21 -13 16 -148 -68z"/>
<path d="M580 1467 l1 -282 160 -75 c88 -41 178 -83 200 -92 l39 -17 -2 281
-3 280 -197 93 -198 93 0 -281z"/>
<path d="M1220 1655 l-195 -92 -3 -281 -2 -281 39 17 c22 9 112 51 200 92
l160 75 1 283 c0 155 -1 282 -2 281 -2 0 -91 -43 -198 -94z"/>
<path d="M1470 810 c-96 -12 -121 -52 -121 -194 0 -155 33 -196 161 -196 129
0 164 41 163 195 0 101 -17 156 -55 176 -32 18 -94 25 -148 19z m89 -79 c33
-33 39 -168 10 -223 -21 -39 -111 -29 -125 14 -9 30 -9 156 0 186 14 41 83 55
115 23z"/>
<path d="M20 615 l0 -197 124 4 c102 2 127 6 144 21 46 42 34 145 -20 168 -19
8 -26 15 -17 17 8 3 22 11 32 20 24 21 23 102 -2 133 -18 22 -27 24 -140 27
l-121 4 0 -197z m188 123 c15 -15 15 -61 0 -76 -7 -7 -31 -12 -55 -12 l-43 0
0 50 0 50 43 0 c24 0 48 -5 55 -12z m8 -159 c17 -14 18 -71 2 -87 -7 -7 -34
-12 -60 -12 l-48 0 0 61 0 62 46 -7 c26 -3 53 -11 60 -17z"/>
<path d="M380 615 l0 -195 40 0 40 0 0 195 0 195 -40 0 -40 0 0 -195z"/>
<path d="M540 615 l0 -197 124 4 c156 4 168 11 164 102 -3 56 -5 62 -37 83
-19 13 -27 23 -19 23 47 0 67 105 29 151 -18 22 -27 24 -140 27 l-121 4 0
-197z m188 123 c7 -7 12 -24 12 -38 0 -38 -18 -50 -72 -50 l-48 0 0 50 0 50
48 0 c26 0 53 -5 60 -12z m8 -159 c17 -14 18 -71 2 -87 -7 -7 -36 -12 -65 -12
l-53 0 0 53 c0 30 3 57 8 61 10 11 92 -1 108 -15z"/>
<path d="M900 636 l0 -175 26 -20 c22 -17 41 -21 103 -21 105 0 121 6 121 41
l0 28 -82 3 -83 3 -3 158 -3 157 -39 0 -40 0 0 -174z"/>
<path d="M1200 615 l0 -195 40 0 40 0 0 195 0 195 -40 0 -40 0 0 -195z"/>
<path d="M1820 665 l0 -45 -45 0 c-43 0 -45 -1 -45 -30 0 -29 2 -30 45 -30
l45 0 0 -45 c0 -43 1 -45 30 -45 29 0 30 2 30 45 l0 45 50 0 c49 0 50 1 50 30
0 29 -1 30 -50 30 l-50 0 0 45 c0 43 -1 45 -30 45 -29 0 -30 -2 -30 -45z"/>
</g>
</svg>
